<?xml version="1.0" encoding="UTF-8"?>
<svg xmlns="http://www.w3.org/2000/svg" width="151.9" height="80" xmlns:xlink="http://www.w3.org/1999/xlink" version="1.1" viewBox="0 0 151.9 80">
  <defs>
    <style>
      .cls-1 {
        fill: none;
      }

      .cls-2 {
        fill: url(#radial-gradient-7);
      }

      .cls-3 {
        fill: url(#radial-gradient-6);
      }

      .cls-4 {
        fill: url(#radial-gradient-5);
      }

      .cls-5 {
        fill: url(#radial-gradient-4);
      }

      .cls-6 {
        fill: url(#radial-gradient-9);
      }

      .cls-7 {
        fill: url(#radial-gradient-2);
      }

      .cls-8 {
        fill: url(#linear-gradient-2);
      }

      .cls-9 {
        fill: url(#radial-gradient);
      }

      .cls-10 {
        fill: url(#linear-gradient);
      }

      .cls-11 {
        fill: url(#radial-gradient-10);
      }

      .cls-11, .cls-12, .cls-13, .cls-14, .cls-15 {
        opacity: .6;
      }

      .cls-11, .cls-12, .cls-13, .cls-14, .cls-15, .cls-16, .cls-17 {
        isolation: isolate;
      }

      .cls-12 {
        fill: url(#radial-gradient-11);
      }

      .cls-13 {
        fill: url(#radial-gradient-14);
      }

      .cls-14 {
        fill: url(#radial-gradient-13);
      }

      .cls-15 {
        fill: url(#radial-gradient-12);
      }

      .cls-18 {
        clip-path: url(#clippath-1);
      }

      .cls-19 {
        clip-path: url(#clippath-3);
      }

      .cls-20 {
        clip-path: url(#clippath-4);
      }

      .cls-21 {
        clip-path: url(#clippath-2);
      }

      .cls-22 {
        clip-path: url(#clippath-7);
      }

      .cls-23 {
        clip-path: url(#clippath-6);
      }

      .cls-24 {
        clip-path: url(#clippath-9);
      }

      .cls-25 {
        clip-path: url(#clippath-8);
      }

      .cls-26 {
        clip-path: url(#clippath-5);
      }

      .cls-27 {
        fill: url(#radial-gradient-16);
      }

      .cls-28 {
        fill: url(#radial-gradient-17);
      }

      .cls-29 {
        fill: url(#radial-gradient-18);
      }

      .cls-30 {
        fill: url(#radial-gradient-15);
      }

      .cls-31 {
        fill: #fff;
      }

      .cls-32 {
        fill: #290d48;
      }

      .cls-16 {
        fill: url(#radial-gradient-8);
        opacity: .3;
      }

      .cls-17 {
        fill: url(#radial-gradient-3);
        opacity: .8;
      }

      .cls-33 {
        clip-path: url(#clippath);
      }
    </style>
    <linearGradient id="linear-gradient" x1="75.8" y1="467.9" x2="75.8" y2="438.2" gradientTransform="translate(0 528) scale(1 -1)" gradientUnits="userSpaceOnUse">
      <stop offset="0" stop-color="#fff" stop-opacity=".6"/>
      <stop offset="0" stop-color="#fff" stop-opacity=".5"/>
      <stop offset=".5" stop-color="#fff" stop-opacity="0"/>
    </linearGradient>
    <linearGradient id="linear-gradient-2" x1="75.8" y1="465.7" x2="75.8" y2="446.7" gradientTransform="translate(0 528) scale(1 -1)" gradientUnits="userSpaceOnUse">
      <stop offset="0" stop-color="#fff"/>
      <stop offset="0" stop-color="#fff" stop-opacity="1"/>
      <stop offset="0" stop-color="#fff" stop-opacity=".2"/>
      <stop offset=".5" stop-color="#fff" stop-opacity="0"/>
    </linearGradient>
    <radialGradient id="radial-gradient" cx="143.3" cy="447.4" fx="143.3" fy="447.4" r="56.1" gradientTransform="translate(-28 396.6) scale(.7 -.7)" gradientUnits="userSpaceOnUse">
      <stop offset="0" stop-color="#a6f3ff"/>
      <stop offset="1" stop-color="#735fe1"/>
    </radialGradient>
    <radialGradient id="radial-gradient-2" cx="144.2" cy="1042.9" fx="144.2" fy="1042.9" r="69.1" gradientTransform="translate(-29 376) scale(.7 -.3)" gradientUnits="userSpaceOnUse">
      <stop offset="0" stop-color="#72c6e0"/>
      <stop offset=".5" stop-color="#735fe1"/>
      <stop offset="1" stop-color="#290d48"/>
    </radialGradient>
    <radialGradient id="radial-gradient-3" cx="145.1" cy="4739.9" fx="145.1" fy="4739.9" r="79" gradientTransform="translate(-29 357.4) scale(.7 0)" gradientUnits="userSpaceOnUse">
      <stop offset="0" stop-color="#a6f3ff" stop-opacity=".6"/>
      <stop offset="1" stop-color="#a6f3ff" stop-opacity="0"/>
    </radialGradient>
    <radialGradient id="radial-gradient-4" cx="145.5" cy="674.9" fx="145.5" fy="674.9" r="135" gradientTransform="translate(-29 373.1) scale(.7 -.5)" gradientUnits="userSpaceOnUse">
      <stop offset="0" stop-color="#82d2fd"/>
      <stop offset=".5" stop-color="#735fe1"/>
      <stop offset=".5" stop-color="#725ee0"/>
      <stop offset=".6" stop-color="#5e4ab7"/>
      <stop offset=".7" stop-color="#4e3998"/>
      <stop offset=".8" stop-color="#432d81"/>
      <stop offset=".9" stop-color="#3c2674"/>
      <stop offset="1" stop-color="#3a246f"/>
    </radialGradient>
    <radialGradient id="radial-gradient-5" cx="144.1" cy="790" fx="144.1" fy="790" r="112.3" gradientTransform="translate(-29 341.3) scale(.7 -.4)" gradientUnits="userSpaceOnUse">
      <stop offset="0" stop-color="#2ef4fc"/>
      <stop offset=".2" stop-color="#47e4fc" stop-opacity=".8"/>
      <stop offset=".5" stop-color="#66d1fd" stop-opacity=".5"/>
      <stop offset=".8" stop-color="#78c5fd" stop-opacity=".2"/>
      <stop offset="1" stop-color="#7fc1fd" stop-opacity="0"/>
    </radialGradient>
    <clipPath id="clippath">
      <path class="cls-1" d="M35.4,6.8l7.7-1.3v57.7h-7.7V6.8h0ZM131,19.1v34c0,6.8-4.2,10.1-9.6,10.1h-9.6V8.4c0-.4-.2-.8-.5-1.1l-1.4-1.6,11.6,2c5.3.9,9.5,5.1,9.5,11.4ZM123.3,18.9c0-1.6-.6-2.9-2.6-3.3l-1.4-.2v39.2h1.4c2,0,2.6-1.5,2.6-3.2V18.9ZM60.7,54.6l-6.9.2L64.5,1.9l-18.6,3.1v10l1.3-1.7c.2-.3.6-.5.9-.6l6.8-1-10.4,51.5h17.5l1.2-10.7-1.4,1.6c-.3.3-.7.5-1.1.5ZM25.1,9.7c.5.3.7.8.7,1.4l-1.7,28.9h-.2s-3.5-30.6-3.5-30.6l-6.4,1.1-3.3,30.4h-.2s-2.4-26.9-2.4-26.9c0-.5.2-.9.5-1.2l1.3-1.5L0,12.8l6,50.5h8l3-25.9h.3s3.1,25.9,3.1,25.9h8.6l4.6-56.1-9.8,1.7,1.3.9ZM106.3,42.7l3,20.6h-7.7l-2.1-16.6c-.2,0-.3,0-.5.1l-1.9.3v16.2h-7.7V4.7c0-.4-.2-.8-.5-1.1l-1.4-1.6,12,2c5.3.9,9.6,5.1,9.6,11.4v19.5c0,3.2-1,5.8-2.7,7.8ZM101.1,15.6c0-1.6-.6-2.9-2.6-3.3l-1.5-.3v26.7s.8-.1,1.6-.3c2-.4,2.5-1.9,2.5-3.7V15.6ZM147,37.5l-2.6-5.2c-1.2-2.5-3.7-8-3.7-11.2s.3-2.6,1.9-2.4c1.7.2,2,3.2,2,7.2v1.6s7-2.2,7-2.2c-.2-8.9-2.7-13.1-9-14.2-6.8-1.1-9.4,3.7-9.4,9.6s2.3,11.1,4.4,15.5l3.5,7.1c1.7,3.4,2.8,6,3.1,8.1.3,1.7-.2,4.4-1.5,4.4-1.8,0-2.4-2.3-2.4-8.4h0s-7.3,2.3-7.3,2.3c0,10.2,4,13.9,9.6,13.9s9.3-5.2,9.3-10.6c0-5.6-2.6-11.1-4.9-15.6ZM75.8,0l-4.8.8-7,62.5h7.8l3.7-44.5h.3l3.7,44.5h8L80.6.8l-4.8-.8Z"/>
    </clipPath>
    <radialGradient id="radial-gradient-6" cx="-1183.9" cy="-154.6" fx="-1183.9" fy="-154.6" r="25.4" gradientTransform="translate(543.9 -270.9) scale(.4 -2.2)" gradientUnits="userSpaceOnUse">
      <stop offset=".5" stop-color="#4bffff"/>
      <stop offset=".6" stop-color="#6cf6fa" stop-opacity=".8"/>
      <stop offset=".8" stop-color="#94eaf5" stop-opacity=".4"/>
      <stop offset=".9" stop-color="#ade3f1" stop-opacity=".2"/>
      <stop offset="1" stop-color="#b6e0f0" stop-opacity="0"/>
    </radialGradient>
    <radialGradient id="radial-gradient-7" cx="143.6" cy="4544.2" fx="143.6" fy="4544.2" r="74.5" gradientTransform="translate(-29 305.4) scale(.7 0)" gradientUnits="userSpaceOnUse">
      <stop offset="0" stop-color="#31ffff"/>
      <stop offset=".2" stop-color="#31ffff"/>
      <stop offset=".3" stop-color="#44fdff" stop-opacity=".9"/>
      <stop offset=".5" stop-color="#6ef9ff" stop-opacity=".6"/>
      <stop offset=".7" stop-color="#8df6ff" stop-opacity=".4"/>
      <stop offset=".9" stop-color="#9ff4ff" stop-opacity=".2"/>
      <stop offset="1" stop-color="#a6f3ff" stop-opacity="0"/>
    </radialGradient>
    <radialGradient id="radial-gradient-8" cx="35976.8" cy="-456.2" fx="35976.8" fy="-456.2" r="21.6" gradientTransform="translate(-1489.9 -254.7) rotate(0) scale(0 -.6) skewX(-.1)" gradientUnits="userSpaceOnUse">
      <stop offset="0" stop-color="#8bcfeb" stop-opacity=".7"/>
      <stop offset=".2" stop-color="#94d3ec" stop-opacity=".6"/>
      <stop offset=".7" stop-color="#addcef" stop-opacity=".2"/>
      <stop offset="1" stop-color="#b6e0f0" stop-opacity="0"/>
    </radialGradient>
    <clipPath id="clippath-1">
      <path class="cls-1" d="M35.4,6.8l7.7-1.3v57.7h-7.7V6.8h0ZM131,19.1v34c0,6.8-4.2,10.1-9.6,10.1h-9.6V8.4c0-.4-.2-.8-.5-1.1l-1.4-1.6,11.6,2c5.3.9,9.5,5.1,9.5,11.4ZM123.3,18.9c0-1.6-.6-2.9-2.6-3.3l-1.4-.2v39.2h1.4c2,0,2.6-1.5,2.6-3.2V18.9ZM60.7,54.6l-6.9.2L64.5,1.9l-18.6,3.1v10l1.3-1.7c.2-.3.6-.5.9-.6l6.8-1-10.4,51.5h17.5l1.2-10.7-1.4,1.6c-.3.3-.7.5-1.1.5ZM25.1,9.7c.5.3.7.8.7,1.4l-1.7,28.9h-.2s-3.5-30.6-3.5-30.6l-6.4,1.1-3.3,30.4h-.2s-2.4-26.9-2.4-26.9c0-.5.2-.9.5-1.2l1.3-1.5L0,12.8l6,50.5h8l3-25.9h.3s3.1,25.9,3.1,25.9h8.6l4.6-56.1-9.8,1.7,1.3.9ZM106.3,42.7l3,20.6h-7.7l-2.1-16.6c-.2,0-.3,0-.5.1l-1.9.3v16.2h-7.7V4.7c0-.4-.2-.8-.5-1.1l-1.4-1.6,12,2c5.3.9,9.6,5.1,9.6,11.4v19.5c0,3.2-1,5.8-2.7,7.8ZM101.1,15.6c0-1.6-.6-2.9-2.6-3.3l-1.5-.3v26.7s.8-.1,1.6-.3c2-.4,2.5-1.9,2.5-3.7V15.6ZM147,37.5l-2.6-5.2c-1.2-2.5-3.7-8-3.7-11.2s.3-2.6,1.9-2.4c1.7.2,2,3.2,2,7.2v1.6s7-2.2,7-2.2c-.2-8.9-2.7-13.1-9-14.2-6.8-1.1-9.4,3.7-9.4,9.6s2.3,11.1,4.4,15.5l3.5,7.1c1.7,3.4,2.8,6,3.1,8.1.3,1.7-.2,4.4-1.5,4.4-1.8,0-2.4-2.3-2.4-8.4h0s-7.3,2.3-7.3,2.3c0,10.2,4,13.9,9.6,13.9s9.3-5.2,9.3-10.6c0-5.6-2.6-11.1-4.9-15.6ZM75.8,0l-4.8.8-7,62.5h7.8l3.7-44.5h.3l3.7,44.5h8L80.6.8l-4.8-.8Z"/>
    </clipPath>
    <radialGradient id="radial-gradient-9" cx="-769.5" cy="997.6" fx="-769.5" fy="997.6" r="4.9" gradientTransform="translate(-6604.8 1483.7) rotate(78.3) scale(1.5 -6.8) skewX(36.5)" gradientUnits="userSpaceOnUse">
      <stop offset=".4" stop-color="#fff" stop-opacity=".3"/>
      <stop offset=".6" stop-color="#e2f3fc" stop-opacity=".2"/>
      <stop offset=".7" stop-color="#bae3f8" stop-opacity=".1"/>
      <stop offset=".9" stop-color="#a1d9f6" stop-opacity="0"/>
      <stop offset="1" stop-color="#98d5f5" stop-opacity="0"/>
    </radialGradient>
    <clipPath id="clippath-2">
      <path class="cls-1" d="M35.4,6.8l7.7-1.3v57.7h-7.7V6.8h0ZM131,19.1v34c0,6.8-4.2,10.1-9.6,10.1h-9.6V8.4c0-.4-.2-.8-.5-1.1l-1.4-1.6,11.6,2c5.3.9,9.5,5.1,9.5,11.4ZM123.3,18.9c0-1.6-.6-2.9-2.6-3.3l-1.4-.2v39.2h1.4c2,0,2.6-1.5,2.6-3.2V18.9ZM60.7,54.6l-6.9.2L64.5,1.9l-18.6,3.1v10l1.3-1.7c.2-.3.6-.5.9-.6l6.8-1-10.4,51.5h17.5l1.2-10.7-1.4,1.6c-.3.3-.7.5-1.1.5ZM25.1,9.7c.5.3.7.8.7,1.4l-1.7,28.9h-.2s-3.5-30.6-3.5-30.6l-6.4,1.1-3.3,30.4h-.2s-2.4-26.9-2.4-26.9c0-.5.2-.9.5-1.2l1.3-1.5L0,12.8l6,50.5h8l3-25.9h.3s3.1,25.9,3.1,25.9h8.6l4.6-56.1-9.8,1.7,1.3.9ZM106.3,42.7l3,20.6h-7.7l-2.1-16.6c-.2,0-.3,0-.5.1l-1.9.3v16.2h-7.7V4.7c0-.4-.2-.8-.5-1.1l-1.4-1.6,12,2c5.3.9,9.6,5.1,9.6,11.4v19.5c0,3.2-1,5.8-2.7,7.8ZM101.1,15.6c0-1.6-.6-2.9-2.6-3.3l-1.5-.3v26.7s.8-.1,1.6-.3c2-.4,2.5-1.9,2.5-3.7V15.6ZM147,37.5l-2.6-5.2c-1.2-2.5-3.7-8-3.7-11.2s.3-2.6,1.9-2.4c1.7.2,2,3.2,2,7.2v1.6s7-2.2,7-2.2c-.2-8.9-2.7-13.1-9-14.2-6.8-1.1-9.4,3.7-9.4,9.6s2.3,11.1,4.4,15.5l3.5,7.1c1.7,3.4,2.8,6,3.1,8.1.3,1.7-.2,4.4-1.5,4.4-1.8,0-2.4-2.3-2.4-8.4h0s-7.3,2.3-7.3,2.3c0,10.2,4,13.9,9.6,13.9s9.3-5.2,9.3-10.6c0-5.6-2.6-11.1-4.9-15.6ZM75.8,0l-4.8.8-7,62.5h7.8l3.7-44.5h.3l3.7,44.5h8L80.6.8l-4.8-.8Z"/>
    </clipPath>
    <radialGradient id="radial-gradient-10" cx="-30900.1" cy="5556.4" fx="-30900.1" fy="5556.4" r="20" gradientTransform="translate(1701.5 7487.1) rotate(40.3) scale(.2 -.8) skewX(0)" gradientUnits="userSpaceOnUse">
      <stop offset="0" stop-color="#98d5f5" stop-opacity=".2"/>
      <stop offset=".3" stop-color="#9ad5ef" stop-opacity=".1"/>
      <stop offset="1" stop-color="#9ed6e6" stop-opacity="0"/>
    </radialGradient>
    <clipPath id="clippath-3">
      <path class="cls-1" d="M35.4,6.8l7.7-1.3v57.7h-7.7V6.8h0ZM131,19.1v34c0,6.8-4.2,10.1-9.6,10.1h-9.6V8.4c0-.4-.2-.8-.5-1.1l-1.4-1.6,11.6,2c5.3.9,9.5,5.1,9.5,11.4ZM123.3,18.9c0-1.6-.6-2.9-2.6-3.3l-1.4-.2v39.2h1.4c2,0,2.6-1.5,2.6-3.2V18.9ZM60.7,54.6l-6.9.2L64.5,1.9l-18.6,3.1v10l1.3-1.7c.2-.3.6-.5.9-.6l6.8-1-10.4,51.5h17.5l1.2-10.7-1.4,1.6c-.3.3-.7.5-1.1.5ZM25.1,9.7c.5.3.7.8.7,1.4l-1.7,28.9h-.2s-3.5-30.6-3.5-30.6l-6.4,1.1-3.3,30.4h-.2s-2.4-26.9-2.4-26.9c0-.5.2-.9.5-1.2l1.3-1.5L0,12.8l6,50.5h8l3-25.9h.3s3.1,25.9,3.1,25.9h8.6l4.6-56.1-9.8,1.7,1.3.9ZM106.3,42.7l3,20.6h-7.7l-2.1-16.6c-.2,0-.3,0-.5.1l-1.9.3v16.2h-7.7V4.7c0-.4-.2-.8-.5-1.1l-1.4-1.6,12,2c5.3.9,9.6,5.1,9.6,11.4v19.5c0,3.2-1,5.8-2.7,7.8ZM101.1,15.6c0-1.6-.6-2.9-2.6-3.3l-1.5-.3v26.7s.8-.1,1.6-.3c2-.4,2.5-1.9,2.5-3.7V15.6ZM147,37.5l-2.6-5.2c-1.2-2.5-3.7-8-3.7-11.2s.3-2.6,1.9-2.4c1.7.2,2,3.2,2,7.2v1.6s7-2.2,7-2.2c-.2-8.9-2.7-13.1-9-14.2-6.8-1.1-9.4,3.7-9.4,9.6s2.3,11.1,4.4,15.5l3.5,7.1c1.7,3.4,2.8,6,3.1,8.1.3,1.7-.2,4.4-1.5,4.4-1.8,0-2.4-2.3-2.4-8.4h0s-7.3,2.3-7.3,2.3c0,10.2,4,13.9,9.6,13.9s9.3-5.2,9.3-10.6c0-5.6-2.6-11.1-4.9-15.6ZM75.8,0l-4.8.8-7,62.5h7.8l3.7-44.5h.3l3.7,44.5h8L80.6.8l-4.8-.8Z"/>
    </clipPath>
    <radialGradient id="radial-gradient-11" cx="-29117.1" cy="6387.2" fx="-29117.1" fy="6387.2" r="20.1" gradientTransform="translate(-3185.3 7304.9) rotate(158.4) scale(.2 .9) skewX(0)" gradientUnits="userSpaceOnUse">
      <stop offset="0" stop-color="#98d5f5" stop-opacity=".3"/>
      <stop offset=".3" stop-color="#9ad5ef" stop-opacity=".2"/>
      <stop offset="1" stop-color="#9ed6e6" stop-opacity="0"/>
    </radialGradient>
    <clipPath id="clippath-4">
      <path class="cls-1" d="M35.4,6.8l7.7-1.3v57.7h-7.7V6.8h0ZM131,19.1v34c0,6.8-4.2,10.1-9.6,10.1h-9.6V8.4c0-.4-.2-.8-.5-1.1l-1.4-1.6,11.6,2c5.3.9,9.5,5.1,9.5,11.4ZM123.3,18.9c0-1.6-.6-2.9-2.6-3.3l-1.4-.2v39.2h1.4c2,0,2.6-1.5,2.6-3.2V18.9ZM60.7,54.6l-6.9.2L64.5,1.9l-18.6,3.1v10l1.3-1.7c.2-.3.6-.5.9-.6l6.8-1-10.4,51.5h17.5l1.2-10.7-1.4,1.6c-.3.3-.7.5-1.1.5ZM25.1,9.7c.5.3.7.8.7,1.4l-1.7,28.9h-.2s-3.5-30.6-3.5-30.6l-6.4,1.1-3.3,30.4h-.2s-2.4-26.9-2.4-26.9c0-.5.2-.9.5-1.2l1.3-1.5L0,12.8l6,50.5h8l3-25.9h.3s3.1,25.9,3.1,25.9h8.6l4.6-56.1-9.8,1.7,1.3.9ZM106.3,42.7l3,20.6h-7.7l-2.1-16.6c-.2,0-.3,0-.5.1l-1.9.3v16.2h-7.7V4.7c0-.4-.2-.8-.5-1.1l-1.4-1.6,12,2c5.3.9,9.6,5.1,9.6,11.4v19.5c0,3.2-1,5.8-2.7,7.8ZM101.1,15.6c0-1.6-.6-2.9-2.6-3.3l-1.5-.3v26.7s.8-.1,1.6-.3c2-.4,2.5-1.9,2.5-3.7V15.6ZM147,37.5l-2.6-5.2c-1.2-2.5-3.7-8-3.7-11.2s.3-2.6,1.9-2.4c1.7.2,2,3.2,2,7.2v1.6s7-2.2,7-2.2c-.2-8.9-2.7-13.1-9-14.2-6.8-1.1-9.4,3.7-9.4,9.6s2.3,11.1,4.4,15.5l3.5,7.1c1.7,3.4,2.8,6,3.1,8.1.3,1.7-.2,4.4-1.5,4.4-1.8,0-2.4-2.3-2.4-8.4h0s-7.3,2.3-7.3,2.3c0,10.2,4,13.9,9.6,13.9s9.3-5.2,9.3-10.6c0-5.6-2.6-11.1-4.9-15.6ZM75.8,0l-4.8.8-7,62.5h7.8l3.7-44.5h.3l3.7,44.5h8L80.6.8l-4.8-.8Z"/>
    </clipPath>
    <radialGradient id="radial-gradient-12" cx="-30280.6" cy="6437.8" fx="-30280.6" fy="6437.8" r="21.1" gradientTransform="translate(-2292.4 9404.7) rotate(135) scale(.3 .8) skewX(0)" gradientUnits="userSpaceOnUse">
      <stop offset="0" stop-color="#fff" stop-opacity=".4"/>
      <stop offset=".2" stop-color="#e8f5f9" stop-opacity=".4"/>
      <stop offset=".6" stop-color="#c0e4ef" stop-opacity=".2"/>
      <stop offset=".8" stop-color="#a7dae8" stop-opacity="0"/>
      <stop offset="1" stop-color="#9ed6e6" stop-opacity="0"/>
    </radialGradient>
    <clipPath id="clippath-5">
      <path class="cls-1" d="M35.4,6.8l7.7-1.3v57.7h-7.7V6.8h0ZM131,19.1v34c0,6.8-4.2,10.1-9.6,10.1h-9.6V8.4c0-.4-.2-.8-.5-1.1l-1.4-1.6,11.6,2c5.3.9,9.5,5.1,9.5,11.4ZM123.3,18.9c0-1.6-.6-2.9-2.6-3.3l-1.4-.2v39.2h1.4c2,0,2.6-1.5,2.6-3.2V18.9ZM60.7,54.6l-6.9.2L64.5,1.9l-18.6,3.1v10l1.3-1.7c.2-.3.6-.5.9-.6l6.8-1-10.4,51.5h17.5l1.2-10.7-1.4,1.6c-.3.3-.7.5-1.1.5ZM25.1,9.7c.5.3.7.8.7,1.4l-1.7,28.9h-.2s-3.5-30.6-3.5-30.6l-6.4,1.1-3.3,30.4h-.2s-2.4-26.9-2.4-26.9c0-.5.2-.9.5-1.2l1.3-1.5L0,12.8l6,50.5h8l3-25.9h.3s3.1,25.9,3.1,25.9h8.6l4.6-56.1-9.8,1.7,1.3.9ZM106.3,42.7l3,20.6h-7.7l-2.1-16.6c-.2,0-.3,0-.5.1l-1.9.3v16.2h-7.7V4.7c0-.4-.2-.8-.5-1.1l-1.4-1.6,12,2c5.3.9,9.6,5.1,9.6,11.4v19.5c0,3.2-1,5.8-2.7,7.8ZM101.1,15.6c0-1.6-.6-2.9-2.6-3.3l-1.5-.3v26.7s.8-.1,1.6-.3c2-.4,2.5-1.9,2.5-3.7V15.6ZM147,37.5l-2.6-5.2c-1.2-2.5-3.7-8-3.7-11.2s.3-2.6,1.9-2.4c1.7.2,2,3.2,2,7.2v1.6s7-2.2,7-2.2c-.2-8.9-2.7-13.1-9-14.2-6.8-1.1-9.4,3.7-9.4,9.6s2.3,11.1,4.4,15.5l3.5,7.1c1.7,3.4,2.8,6,3.1,8.1.3,1.7-.2,4.4-1.5,4.4-1.8,0-2.4-2.3-2.4-8.4h0s-7.3,2.3-7.3,2.3c0,10.2,4,13.9,9.6,13.9s9.3-5.2,9.3-10.6c0-5.6-2.6-11.1-4.9-15.6ZM75.8,0l-4.8.8-7,62.5h7.8l3.7-44.5h.3l3.7,44.5h8L80.6.8l-4.8-.8Z"/>
    </clipPath>
    <radialGradient id="radial-gradient-13" cx="-31345.1" cy="6064.9" fx="-31345.1" fy="6064.9" r="17.6" gradientTransform="translate(2874.5 11948) rotate(56.8) scale(.4 -.7) skewX(0)" gradientUnits="userSpaceOnUse">
      <stop offset=".4" stop-color="#fff" stop-opacity=".2"/>
      <stop offset=".5" stop-color="#e8f5f9" stop-opacity=".2"/>
      <stop offset=".7" stop-color="#c0e4ef" stop-opacity=".1"/>
      <stop offset=".9" stop-color="#a7dae8" stop-opacity="0"/>
      <stop offset="1" stop-color="#9ed6e6" stop-opacity="0"/>
    </radialGradient>
    <clipPath id="clippath-6">
      <path class="cls-1" d="M35.4,6.8l7.7-1.3v57.7h-7.7V6.8h0ZM131,19.1v34c0,6.8-4.2,10.1-9.6,10.1h-9.6V8.4c0-.4-.2-.8-.5-1.1l-1.4-1.6,11.6,2c5.3.9,9.5,5.1,9.5,11.4ZM123.3,18.9c0-1.6-.6-2.9-2.6-3.3l-1.4-.2v39.2h1.4c2,0,2.6-1.5,2.6-3.2V18.9ZM60.7,54.6l-6.9.2L64.5,1.9l-18.6,3.1v10l1.3-1.7c.2-.3.6-.5.9-.6l6.8-1-10.4,51.5h17.5l1.2-10.7-1.4,1.6c-.3.3-.7.5-1.1.5ZM25.1,9.7c.5.3.7.8.7,1.4l-1.7,28.9h-.2s-3.5-30.6-3.5-30.6l-6.4,1.1-3.3,30.4h-.2s-2.4-26.9-2.4-26.9c0-.5.2-.9.5-1.2l1.3-1.5L0,12.8l6,50.5h8l3-25.9h.3s3.1,25.9,3.1,25.9h8.6l4.6-56.1-9.8,1.7,1.3.9ZM106.3,42.7l3,20.6h-7.7l-2.1-16.6c-.2,0-.3,0-.5.1l-1.9.3v16.2h-7.7V4.7c0-.4-.2-.8-.5-1.1l-1.4-1.6,12,2c5.3.9,9.6,5.1,9.6,11.4v19.5c0,3.2-1,5.8-2.7,7.8ZM101.1,15.6c0-1.6-.6-2.9-2.6-3.3l-1.5-.3v26.7s.8-.1,1.6-.3c2-.4,2.5-1.9,2.5-3.7V15.6ZM147,37.5l-2.6-5.2c-1.2-2.5-3.7-8-3.7-11.2s.3-2.6,1.9-2.4c1.7.2,2,3.2,2,7.2v1.6s7-2.2,7-2.2c-.2-8.9-2.7-13.1-9-14.2-6.8-1.1-9.4,3.7-9.4,9.6s2.3,11.1,4.4,15.5l3.5,7.1c1.7,3.4,2.8,6,3.1,8.1.3,1.7-.2,4.4-1.5,4.4-1.8,0-2.4-2.3-2.4-8.4h0s-7.3,2.3-7.3,2.3c0,10.2,4,13.9,9.6,13.9s9.3-5.2,9.3-10.6c0-5.6-2.6-11.1-4.9-15.6ZM75.8,0l-4.8.8-7,62.5h7.8l3.7-44.5h.3l3.7,44.5h8L80.6.8l-4.8-.8Z"/>
    </clipPath>
    <radialGradient id="radial-gradient-14" cx="-32465.7" cy="3526.4" fx="-32465.7" fy="3526.4" r="20.9" gradientTransform="translate(8764.2 -12910.5) rotate(-66) scale(.5 -.8) skewX(0)" gradientUnits="userSpaceOnUse">
      <stop offset=".3" stop-color="#fff" stop-opacity=".6"/>
      <stop offset=".5" stop-color="#e8f5f9" stop-opacity=".5"/>
      <stop offset=".7" stop-color="#c0e4ef" stop-opacity=".3"/>
      <stop offset=".9" stop-color="#a7dae8" stop-opacity="0"/>
      <stop offset="1" stop-color="#9ed6e6" stop-opacity="0"/>
    </radialGradient>
    <clipPath id="clippath-7">
      <path class="cls-1" d="M35.4,6.8l7.7-1.3v57.7h-7.7V6.8h0ZM131,19.1v34c0,6.8-4.2,10.1-9.6,10.1h-9.6V8.4c0-.4-.2-.8-.5-1.1l-1.4-1.6,11.6,2c5.3.9,9.5,5.1,9.5,11.4ZM123.3,18.9c0-1.6-.6-2.9-2.6-3.3l-1.4-.2v39.2h1.4c2,0,2.6-1.5,2.6-3.2V18.9ZM60.7,54.6l-6.9.2L64.5,1.9l-18.6,3.1v10l1.3-1.7c.2-.3.6-.5.9-.6l6.8-1-10.4,51.5h17.5l1.2-10.7-1.4,1.6c-.3.3-.7.5-1.1.5ZM25.1,9.7c.5.3.7.8.7,1.4l-1.7,28.9h-.2s-3.5-30.6-3.5-30.6l-6.4,1.1-3.3,30.4h-.2s-2.4-26.9-2.4-26.9c0-.5.2-.9.5-1.2l1.3-1.5L0,12.8l6,50.5h8l3-25.9h.3s3.1,25.9,3.1,25.9h8.6l4.6-56.1-9.8,1.7,1.3.9ZM106.3,42.7l3,20.6h-7.7l-2.1-16.6c-.2,0-.3,0-.5.1l-1.9.3v16.2h-7.7V4.7c0-.4-.2-.8-.5-1.1l-1.4-1.6,12,2c5.3.9,9.6,5.1,9.6,11.4v19.5c0,3.2-1,5.8-2.7,7.8ZM101.1,15.6c0-1.6-.6-2.9-2.6-3.3l-1.5-.3v26.7s.8-.1,1.6-.3c2-.4,2.5-1.9,2.5-3.7V15.6ZM147,37.5l-2.6-5.2c-1.2-2.5-3.7-8-3.7-11.2s.3-2.6,1.9-2.4c1.7.2,2,3.2,2,7.2v1.6s7-2.2,7-2.2c-.2-8.9-2.7-13.1-9-14.2-6.8-1.1-9.4,3.7-9.4,9.6s2.3,11.1,4.4,15.5l3.5,7.1c1.7,3.4,2.8,6,3.1,8.1.3,1.7-.2,4.4-1.5,4.4-1.8,0-2.4-2.3-2.4-8.4h0s-7.3,2.3-7.3,2.3c0,10.2,4,13.9,9.6,13.9s9.3-5.2,9.3-10.6c0-5.6-2.6-11.1-4.9-15.6ZM75.8,0l-4.8.8-7,62.5h7.8l3.7-44.5h.3l3.7,44.5h8L80.6.8l-4.8-.8Z"/>
    </clipPath>
    <radialGradient id="radial-gradient-15" cx="-368.5" cy="777.3" fx="-368.5" fy="777.3" r="3.6" gradientTransform="translate(3158.9 -2547.1) rotate(-98.5) scale(2.5 -4.4) skewX(-31.8)" gradientUnits="userSpaceOnUse">
      <stop offset=".4" stop-color="#fff" stop-opacity=".3"/>
      <stop offset=".5" stop-color="#e8f5f9" stop-opacity=".2"/>
      <stop offset=".7" stop-color="#c0e4ef" stop-opacity=".1"/>
      <stop offset=".9" stop-color="#a7dae8" stop-opacity="0"/>
      <stop offset="1" stop-color="#9ed6e6" stop-opacity="0"/>
    </radialGradient>
    <clipPath id="clippath-8">
      <path class="cls-1" d="M35.4,6.8l7.7-1.3v57.7h-7.7V6.8h0ZM131,19.1v34c0,6.8-4.2,10.1-9.6,10.1h-9.6V8.4c0-.4-.2-.8-.5-1.1l-1.4-1.6,11.6,2c5.3.9,9.5,5.1,9.5,11.4ZM123.3,18.9c0-1.6-.6-2.9-2.6-3.3l-1.4-.2v39.2h1.4c2,0,2.6-1.5,2.6-3.2V18.9ZM60.7,54.6l-6.9.2L64.5,1.9l-18.6,3.1v10l1.3-1.7c.2-.3.6-.5.9-.6l6.8-1-10.4,51.5h17.5l1.2-10.7-1.4,1.6c-.3.3-.7.5-1.1.5ZM25.1,9.7c.5.3.7.8.7,1.4l-1.7,28.9h-.2s-3.5-30.6-3.5-30.6l-6.4,1.1-3.3,30.4h-.2s-2.4-26.9-2.4-26.9c0-.5.2-.9.5-1.2l1.3-1.5L0,12.8l6,50.5h8l3-25.9h.3s3.1,25.9,3.1,25.9h8.6l4.6-56.1-9.8,1.7,1.3.9ZM106.3,42.7l3,20.6h-7.7l-2.1-16.6c-.2,0-.3,0-.5.1l-1.9.3v16.2h-7.7V4.7c0-.4-.2-.8-.5-1.1l-1.4-1.6,12,2c5.3.9,9.6,5.1,9.6,11.4v19.5c0,3.2-1,5.8-2.7,7.8ZM101.1,15.6c0-1.6-.6-2.9-2.6-3.3l-1.5-.3v26.7s.8-.1,1.6-.3c2-.4,2.5-1.9,2.5-3.7V15.6ZM147,37.5l-2.6-5.2c-1.2-2.5-3.7-8-3.7-11.2s.3-2.6,1.9-2.4c1.7.2,2,3.2,2,7.2v1.6s7-2.2,7-2.2c-.2-8.9-2.7-13.1-9-14.2-6.8-1.1-9.4,3.7-9.4,9.6s2.3,11.1,4.4,15.5l3.5,7.1c1.7,3.4,2.8,6,3.1,8.1.3,1.7-.2,4.4-1.5,4.4-1.8,0-2.4-2.3-2.4-8.4h0s-7.3,2.3-7.3,2.3c0,10.2,4,13.9,9.6,13.9s9.3-5.2,9.3-10.6c0-5.6-2.6-11.1-4.9-15.6ZM75.8,0l-4.8.8-7,62.5h7.8l3.7-44.5h.3l3.7,44.5h8L80.6.8l-4.8-.8Z"/>
    </clipPath>
    <radialGradient id="radial-gradient-16" cx="-764.4" cy="976.6" fx="-764.4" fy="976.6" r="2.7" gradientTransform="translate(-8108.9 892.5) rotate(84.6) scale(1.7 -8.4) skewX(36.5)" gradientUnits="userSpaceOnUse">
      <stop offset=".4" stop-color="#fff" stop-opacity=".3"/>
      <stop offset=".6" stop-color="#e2f3fc" stop-opacity=".2"/>
      <stop offset=".7" stop-color="#bae3f8" stop-opacity=".1"/>
      <stop offset=".9" stop-color="#a1d9f6" stop-opacity="0"/>
      <stop offset="1" stop-color="#98d5f5" stop-opacity="0"/>
    </radialGradient>
    <clipPath id="clippath-9">
      <path class="cls-1" d="M35.4,6.8l7.7-1.3v57.7h-7.7V6.8h0ZM131,19.1v34c0,6.8-4.2,10.1-9.6,10.1h-9.6V8.4c0-.4-.2-.8-.5-1.1l-1.4-1.6,11.6,2c5.3.9,9.5,5.1,9.5,11.4ZM123.3,18.9c0-1.6-.6-2.9-2.6-3.3l-1.4-.2v39.2h1.4c2,0,2.6-1.5,2.6-3.2V18.9ZM60.7,54.6l-6.9.2L64.5,1.9l-18.6,3.1v10l1.3-1.7c.2-.3.6-.5.9-.6l6.8-1-10.4,51.5h17.5l1.2-10.7-1.4,1.6c-.3.3-.7.5-1.1.5ZM25.1,9.7c.5.3.7.8.7,1.4l-1.7,28.9h-.2s-3.5-30.6-3.5-30.6l-6.4,1.1-3.3,30.4h-.2s-2.4-26.9-2.4-26.9c0-.5.2-.9.5-1.2l1.3-1.5L0,12.8l6,50.5h8l3-25.9h.3s3.1,25.9,3.1,25.9h8.6l4.6-56.1-9.8,1.7,1.3.9ZM106.3,42.7l3,20.6h-7.7l-2.1-16.6c-.2,0-.3,0-.5.1l-1.9.3v16.2h-7.7V4.7c0-.4-.2-.8-.5-1.1l-1.4-1.6,12,2c5.3.9,9.6,5.1,9.6,11.4v19.5c0,3.2-1,5.8-2.7,7.8ZM101.1,15.6c0-1.6-.6-2.9-2.6-3.3l-1.5-.3v26.7s.8-.1,1.6-.3c2-.4,2.5-1.9,2.5-3.7V15.6ZM147,37.5l-2.6-5.2c-1.2-2.5-3.7-8-3.7-11.2s.3-2.6,1.9-2.4c1.7.2,2,3.2,2,7.2v1.6s7-2.2,7-2.2c-.2-8.9-2.7-13.1-9-14.2-6.8-1.1-9.4,3.7-9.4,9.6s2.3,11.1,4.4,15.5l3.5,7.1c1.7,3.4,2.8,6,3.1,8.1.3,1.7-.2,4.4-1.5,4.4-1.8,0-2.4-2.3-2.4-8.4h0s-7.3,2.3-7.3,2.3c0,10.2,4,13.9,9.6,13.9s9.3-5.2,9.3-10.6c0-5.6-2.6-11.1-4.9-15.6ZM75.8,0l-4.8.8-7,62.5h7.8l3.7-44.5h.3l3.7,44.5h8L80.6.8l-4.8-.8Z"/>
    </clipPath>
    <radialGradient id="radial-gradient-17" cx="-853.2" cy="1162.5" fx="-853.2" fy="1162.5" r="6.1" gradientTransform="translate(-8730 -992.6) rotate(94.3) scale(1.4 -7.6) skewX(44.1)" gradientUnits="userSpaceOnUse">
      <stop offset=".4" stop-color="#fff" stop-opacity=".3"/>
      <stop offset=".6" stop-color="#e2f3fc" stop-opacity=".3"/>
      <stop offset=".7" stop-color="#bae3f8" stop-opacity=".2"/>
      <stop offset=".9" stop-color="#a1d9f6" stop-opacity="0"/>
      <stop offset="1" stop-color="#98d5f5" stop-opacity="0"/>
    </radialGradient>
    <radialGradient id="radial-gradient-18" cx="144.3" cy="494.8" fx="144.3" fy="494.8" r="107.3" gradientTransform="translate(-29 422.9) scale(.7 -.7)" gradientUnits="userSpaceOnUse">
      <stop offset="0" stop-color="#a6eafd"/>
      <stop offset=".2" stop-color="#86dafd"/>
      <stop offset=".4" stop-color="#81b7f5"/>
      <stop offset=".7" stop-color="#735fe1"/>
    </radialGradient>
  </defs>
  <!-- Generator: Adobe Illustrator 28.6.0, SVG Export Plug-In . SVG Version: 1.2.0 Build 709)  -->
  <g>
    <g id="Layer_1">
      <g>
        <polyline class="cls-10" points="35.6 74.2 116 74.2 79.7 63.3 77.1 59.7 75.8 59.8 74.5 59.7 71.9 63.3 35.6 74.2"/>
        <polygon class="cls-8" points="95.7 74.2 79.7 63.3 71.9 63.3 56 74.2 95.7 74.2"/>
        <path class="cls-9" d="M38.6,70.5c-1.4,0-2.7.8-2.7,2.3v4.4c0,1.6,1.2,2.6,2.7,2.6s2.4-1,2.4-2.6v-4.4c0-1.6-1.1-2.3-2.4-2.3ZM39.5,77.3c0,.5-.3.9-.9.9s-.9-.4-.9-.9v-4.5c0-.5.3-.9.9-.9s.9.3.9.9v4.5ZM43.7,70.7h3.7v1.6l-.2.2v-.4c-.1,0-.2,0-.3,0h-1.7v2.3h1.8l-.2,1.3-.2.2-1.4-.2v3.8l-.2.2-1.3-.2-.2-8.6.2-.2ZM53.5,70.7h4.8v1.8c-.1,0-.2-.4-.2-.4,0,0-.2,0-.2,0h-1.2v7.7c-.1,0-1.5-.2-1.5-.2v-7.5h-1.2c0,0-.2,0-.2,0l-.2.2-.2-1.4.2-.2ZM90.2,70.5c-1.4,0-2.4.8-2.4,2.3v4.4c0,1.6,1,2.3,2.4,2.3s2.4-.8,2.4-2.4v-4.4c0-1.6-1.1-2.3-2.4-2.3ZM91.1,77.3c0,.5-.3.9-.9.9s-.9-.4-.9-.9v-4.5c0-.5.3-.9.9-.9s.9.3.9.9v4.5h0ZM84.9,73v.4l-1.4.7v-.3c0,0,0-1.1,0-1.1,0-.5-.4-.8-1-.8s-.9.4-.9.9v4.5c0,.6.3.9.9.9s.8-.3.8-.8v-.7l1.4-.6v.2c0,0,0,1.1,0,1.1,0,1.3-.9,2.1-2.3,2.1s-2.4-.7-2.4-2.2v-4.6c0-1.4,1.1-2.2,2.4-2.2,1.3,0,2.2.6,2.2,2.5ZM72.5,78.1l.2-.2v1.6h-3.7v-8.6c0,0,0-.2,0-.2h3.7v1.6s0,.2,0,.2l-.2-.4c0,0-.2,0-.2,0h-1.7v2.3h1.6v.2s-1.6,1.1-1.6,1.1v2.5h1.6c0,0,.2,0,.2,0ZM100.9,79v-.2h0l-1.4-7.9v-.2h-2.2l-1.6,8.4c0,0,0,.1-.1.2l-.2.2v.2c0,0,1.6-.2,1.6-.2l.2-1.2h2.1l.2,1.2v.2c.1,0,1.7-.1,1.7-.1l-.3-.3c0,0,0-.2,0-.2ZM97.5,76.9l.8-4.5h0l.8,4.5h-1.6ZM65.7,71.2v7.8c0,0,0,.2,0,.2l.2.2v.2c0,0-1.8-.2-1.8-.2v-3.8h-1.7v3.9c0,0-1.6-.2-1.6-.2v-.2c0,0,0-.2,0-.2v-7.8c0,0,0-.2,0-.2h-.3s.1-.2.1-.2h1.8v3.6h1.7v-3.4c0,0,0-.2,0-.2h1.8v.2c0,0-.2.1-.2.1,0,0,0,.2,0,.2ZM110.9,70.7h4.8l.3.2-.3,1.4-.2-.2c0,0-.2,0-.2,0h-1.2v7.5l-1.3.2-.2-.2v-7.4h-1.2c0,0-.2,0-.2,0v.4s-.2-.2-.2-.2v-1.6h0ZM107,74.8c.9.8,1.4,1.6,1.4,2.5s-.9,2.3-2.4,2.3-1.7-.4-2.1-1.1c-.2-.4-.2-.8-.2-1.3,0,0,0,0,0-.1l1.5-.5.2.2-.2.4c0,.7.2,1.2.9,1.2s.8-.5.8-.9-.3-.9-.9-1.4l-.9-.9c-.8-.8-1.3-1.4-1.3-2.4s.8-2.2,2.4-2.2,2.1.6,2.2,2.3c0,0,0,0,0,.1l-1.2.7-.2-.2c0-.2,0-.5,0-.7,0,0,0-.2,0-.2-.1-.4-.3-.7-.8-.7s-.8.3-.8.8.5.9,1,1.4l.9.8Z"/>
        <path class="cls-32" d="M38.2,70.9c-1.4,0-2.5.8-2.5,2.3v4.4c0,1.6,1,2.3,2.5,2.3s2.5-.8,2.5-2.4v-4.4c0-1.6-1.1-2.3-2.5-2.3ZM39.1,77.7c0,.5-.3.9-.9.9s-.9-.4-.9-.9v-4.5c0-.5.3-.9.9-.9s.9.3.9.9v4.5ZM43.4,71.1v-.2c.1,0,3.7.2,3.7.2v1.4c.1,0,0,.2,0,.2l-.2-.2c0,0-.2,0-.2,0h-1.3l-.2-.2v.2c-.1,0-.1,2.3-.1,2.3h1.9v1.1c0,0-.3.2-.3.2h-1.3l-.2-.2v.2c-.1,0,0,3.6,0,3.6l-.2.2h-1.5v-8.8ZM53.2,71h0c0-.1,4.8,0,4.8,0v1.4c0,0,0,.2,0,.2l-.2-.2c0,0-.2,0-.2,0h-1v-.2c-.1,0-.2.2-.2.2v7.3c0,0,0,.2,0,.2h-1.5v-7.5h-1.2c0,0-.2,0-.2,0l-.2.2v-1.7h0ZM90.4,70.9c-1.4,0-2.5.8-2.5,2.3v4.4c0,1.6,1,2.3,2.5,2.3s2.5-.8,2.5-2.4v-4.4c0-1.6-1.1-2.3-2.5-2.3ZM91.3,77.7c0,.5-.3.9-.9.9s-.9-.4-.9-.9v-4.5c0-.5.3-.9.9-.9s.9.3.9.9v4.5ZM85,73.4v.4l-1.4.5v-.2s0-1,0-1c0-.5-.3-.9-.9-.9s-.9.4-.9.9v4.4c0,.6.3.9.9.9s.8-.2.8-.7v-.7l1.4-.8v.2s0,1.3,0,1.3c0,1.3-1,2.1-2.3,2.1s-2.4-.7-2.4-2.2v-4.6c0-1.4,1.1-2.2,2.5-2.2,1.3,0,2.3.6,2.3,2.5ZM72.5,78.5l.2-.2v1.4s0,.2,0,.2h-3.7v-9h3.7v1.8s-.2-.2-.2-.2c0,0-.2,0-.2,0h-1.6v-.2s0,.2,0,.2v2.3h1.5v1.1s0,.2,0,.2h-1.4v-.2s0,.2,0,.2v2.5h1.7c0,0,.2,0,.2,0ZM101.2,79.3h0c0-.1-1.5-8.2-1.5-8.2v-.2c-.1,0-2,.2-2,.2l-1.6,8.4c0,0,0,.1-.1.2h-.4s0,.3,0,.3h1.7l.2-1.2h1.9v-.2c0,0,.2.2.2.2v1c0,0,.3.2.3.2h1.7v-.2c-.1,0-.3-.2-.3-.2,0,0,0-.1-.1-.2ZM97.6,77.1l.2-.2.7-3.7v-.6s.1.2.1.2l.8,4.5-1.7-.2ZM65.6,71.5v7.9c0,0,0,.2,0,.2h.2s0,.2,0,.2h-1.8v-3.8h-1.5v-.2c0,0-.1.2-.1.2v3.5c0,0,0,.2,0,.2h-1.8v-.2c0,0,.2-.2.2-.2,0,0,0-.2,0-.2v-7.7c0,0,0-.2,0-.2l-.2-.2v-.2c0,0,1.9.2,1.9.2v3.6l1.7-.2v-.2s0-3.2,0-3.2v-.2s1.6.2,1.6.2l-.2.2c0,0,.1.2.1.2ZM111.3,71.1l4.7-.2.2.2v1.6l-.2-.2c0,0-.2,0-.2,0h-1.2v7.5h-1.5l-.2-.2v-7.5l-.2.2h-.8c0,0-.2,0-.2,0l-.2.2-.2-.2.2-1.4ZM107.3,75.2c.9.8,1.4,1.6,1.4,2.5s-.9,2.3-2.4,2.3-1.7-.4-2.1-1.1c-.2-.4-.2-.8-.2-1.3,0,0,0,0,0-.1l1.3-.7v.2c.1.1.2.6.2.6,0,.7.2,1.2.9,1.2s.8-.5.8-.9-.3-.9-.9-1.4l-.9-.9c-.8-.8-1.3-1.4-1.3-2.4s.8-2.2,2.4-2.2,2.2.6,2.2,2.3c0,0,0,0,0,.1l-1.4.5-.2-.2c0-.2.1-.4,0-.5,0,0,0-.2,0-.2-.1-.4-.3-.7-.8-.7s-.8.3-.8.8.5.9,1,1.4l.9.8Z"/>
        <path class="cls-7" d="M38.3,70.7c-1.4,0-2.5.8-2.5,2.3v4.4c0,1.6,1,2.3,2.4,2.3s2.5-.8,2.5-2.4v-4.4c0-1.6-1.1-2.3-2.4-2.3ZM39.2,77.5c0,.5-.3.9-.9.9s-.9-.4-.9-.9v-4.5c0-.5.3-.9.9-.9s.9.3.9.9v4.5ZM43.5,70.9h3.7v1.6l-.2-.2c0,0-.2,0-.2,0h-1.7v2.3h1.9l-.2,1.3h-1.6v3.8h-1.6v-8.8h0ZM53.3,70.9h4.9v1.6l-.2-.2c0,0-.2,0-.2,0h-1.2v7.5h-1.6v-7.5h-1.2c0,0-.2,0-.2,0l-.2.2v-1.6h0ZM90.3,70.7c-1.4,0-2.5.8-2.5,2.3v4.4c0,1.6,1,2.3,2.4,2.3s2.5-.8,2.5-2.4v-4.4c0-1.6-1.1-2.3-2.4-2.3ZM91.2,77.5c0,.5-.3.9-.9.9s-.9-.4-.9-.9v-4.5c0-.5.3-.9.9-.9s.9.3.9.9v4.5h0ZM84.9,73.2v.4l-1.4.5v-1.2c0-.5-.3-.9-.9-.9s-.9.4-.9.9v4.5c0,.6.3.9.9.9s.8-.3.8-.8v-.7l1.4-.6v1.3c0,1.3-.9,2.1-2.3,2.1s-2.4-.7-2.4-2.2v-4.6c0-1.4,1.1-2.2,2.4-2.2s2.3.6,2.3,2.5ZM72.5,78.2l.2-.2v1.6h-3.7v-8.8h3.7v1.6l-.2-.2c0,0-.2,0-.2,0h-1.7v2.3h1.6l-.2,1.3h-1.5v2.5h1.7c0,0,.2,0,.2,0ZM101.1,79.2v-.2h0l-1.5-8.1h-2l-1.6,8.3c0,0,0,.1-.1.2l-.3.3h1.7l.2-1.2h2.1l.2,1.2h1.8l-.3-.3c0,0,0-.1-.1-.2ZM97.6,77.1l.8-4.5h0l.8,4.5h-1.6ZM65.7,71.3v7.8c0,0,0,.2,0,.2l.2.2h-1.8v-3.7h-1.7v3.7h-1.8l.2-.2c0,0,0-.2,0-.2v-7.8c0,0,0-.2,0-.2l-.2-.2h1.8v3.6h1.7v-3.6h1.8l-.2.2c0,0,0,.2,0,.2ZM111.1,70.9h4.9v1.6l-.2-.2c0,0-.2,0-.2,0h-1.2v7.5h-1.6v-7.5h-1.2c0,0-.2,0-.2,0l-.2.2v-1.6h0ZM107.2,75c.9.8,1.4,1.6,1.4,2.5s-.9,2.3-2.4,2.3-1.7-.4-2.1-1.1c-.2-.4-.2-.8-.2-1.3,0,0,0,0,0-.1l1.5-.5c0,.1,0,.6,0,.6,0,.7.2,1.2.9,1.2s.8-.5.8-.9-.3-.9-.9-1.4l-.9-.9c-.8-.8-1.3-1.4-1.3-2.4s.8-2.2,2.4-2.2,2.2.6,2.2,2.3c0,0,0,0,0,.1l-1.4.5c0-.2,0-.5,0-.7,0,0,0-.2,0-.2-.1-.4-.3-.7-.8-.7s-.8.3-.8.8.5.9,1,1.4l.9.8Z"/>
        <path class="cls-17" d="M38.3,70.7c-1.4,0-2.5.8-2.5,2.3v4.4c0,1.6,1,2.3,2.4,2.3s2.5-.8,2.5-2.4v-4.4c0-1.6-1.1-2.3-2.4-2.3ZM39.2,77.5c0,.5-.3.9-.9.9s-.9-.4-.9-.9v-4.5c0-.5.3-.9.9-.9s.9.3.9.9v4.5ZM43.5,70.9h3.7v1.6l-.2-.2c0,0-.2,0-.2,0h-1.7v2.3h1.9l-.2,1.3h-1.6v3.8h-1.6v-8.8h0ZM53.3,70.9h4.9v1.6l-.2-.2c0,0-.2,0-.2,0h-1.2v7.5h-1.6v-7.5h-1.2c0,0-.2,0-.2,0l-.2.2v-1.6h0ZM90.3,70.7c-1.4,0-2.5.8-2.5,2.3v4.4c0,1.6,1,2.3,2.4,2.3s2.5-.8,2.5-2.4v-4.4c0-1.6-1.1-2.3-2.4-2.3ZM91.2,77.5c0,.5-.3.9-.9.9s-.9-.4-.9-.9v-4.5c0-.5.3-.9.9-.9s.9.3.9.9v4.5h0ZM84.9,73.2v.4l-1.4.5v-1.2c0-.5-.3-.9-.9-.9s-.9.4-.9.9v4.5c0,.6.3.9.9.9s.8-.3.8-.8v-.7l1.4-.6v1.3c0,1.3-.9,2.1-2.3,2.1s-2.4-.7-2.4-2.2v-4.6c0-1.4,1.1-2.2,2.4-2.2s2.3.6,2.3,2.5ZM72.5,78.2l.2-.2v1.6h-3.7v-8.8h3.7v1.6l-.2-.2c0,0-.2,0-.2,0h-1.7v2.3h1.6l-.2,1.3h-1.5v2.5h1.7c0,0,.2,0,.2,0ZM101.1,79.2v-.2h0l-1.5-8.1h-2l-1.6,8.3c0,0,0,.1-.1.2l-.3.3h1.7l.2-1.2h2.1l.2,1.2h1.8l-.3-.3c0,0,0-.1-.1-.2ZM97.6,77.1l.8-4.5h0l.8,4.5h-1.6ZM65.7,71.3v7.8c0,0,0,.2,0,.2l.2.2h-1.8v-3.7h-1.7v3.7h-1.8l.2-.2c0,0,0-.2,0-.2v-7.8c0,0,0-.2,0-.2l-.2-.2h1.8v3.6h1.7v-3.6h1.8l-.2.2c0,0,0,.2,0,.2ZM111.1,70.9h4.9v1.6l-.2-.2c0,0-.2,0-.2,0h-1.2v7.5h-1.6v-7.5h-1.2c0,0-.2,0-.2,0l-.2.2v-1.6h0ZM107.2,75c.9.8,1.4,1.6,1.4,2.5s-.9,2.3-2.4,2.3-1.7-.4-2.1-1.1c-.2-.4-.2-.8-.2-1.3,0,0,0,0,0-.1l1.5-.5c0,.1,0,.6,0,.6,0,.7.2,1.2.9,1.2s.8-.5.8-.9-.3-.9-.9-1.4l-.9-.9c-.8-.8-1.3-1.4-1.3-2.4s.8-2.2,2.4-2.2,2.2.6,2.2,2.3c0,0,0,0,0,.1l-1.4.5c0-.2,0-.5,0-.7,0,0,0-.2,0-.2-.1-.4-.3-.7-.8-.7s-.8.3-.8.8.5.9,1,1.4l.9.8Z"/>
        <path class="cls-5" d="M35.4,6.8l7.7-1.3v57.7h-7.7V6.8h0ZM131,19.1v34c0,6.8-4.2,10.1-9.6,10.1h-9.6V8.4c0-.4-.2-.8-.5-1.1l-1.4-1.6,11.6,2c5.3.9,9.5,5.1,9.5,11.4ZM123.3,18.9c0-1.6-.6-2.9-2.6-3.3l-1.4-.2v39.2h1.4c2,0,2.6-1.5,2.6-3.2V18.9ZM60.7,54.6l-6.9.2L64.5,1.9l-18.6,3.1v10l1.3-1.7c.2-.3.6-.5.9-.6l6.8-1-10.4,51.5h17.5l1.2-10.7-1.4,1.6c-.3.3-.7.5-1.1.5ZM25.1,9.7c.5.3.7.8.7,1.4l-1.7,28.9h-.2s-3.5-30.6-3.5-30.6l-6.4,1.1-3.3,30.4h-.2s-2.4-26.9-2.4-26.9c0-.5.2-.9.5-1.2l1.3-1.5L0,12.8l6,50.5h8l3-25.9h.3s3.1,25.9,3.1,25.9h8.6l4.6-56.1-9.8,1.7,1.3.9ZM106.3,42.7l3,20.6h-7.7l-2.1-16.6c-.2,0-.3,0-.5.1l-1.9.3v16.2h-7.7V4.7c0-.4-.2-.8-.5-1.1l-1.4-1.6,12,2c5.3.9,9.6,5.1,9.6,11.4v19.5c0,3.2-1,5.8-2.7,7.8ZM101.1,15.6c0-1.6-.6-2.9-2.6-3.3l-1.5-.3v26.7s.8-.1,1.6-.3c2-.4,2.5-1.9,2.5-3.7V15.6ZM147,37.5l-2.6-5.2c-1.2-2.5-3.7-8-3.7-11.2s.3-2.6,1.9-2.4c1.7.2,2,3.2,2,7.2v1.6s7-2.2,7-2.2c-.2-8.9-2.7-13.1-9-14.2-6.8-1.1-9.4,3.7-9.4,9.6s2.3,11.1,4.4,15.5l3.5,7.1c1.7,3.4,2.8,6,3.1,8.1.3,1.7-.2,4.4-1.5,4.4-1.8,0-2.4-2.3-2.4-8.4h0s-7.3,2.3-7.3,2.3c0,10.2,4,13.9,9.6,13.9s9.3-5.2,9.3-10.6c0-5.6-2.6-11.1-4.9-15.6ZM75.8,0l-4.8.8-7,62.5h7.8l3.7-44.5h.3l3.7,44.5h8L80.6.8l-4.8-.8Z"/>
        <path class="cls-4" d="M35.4,6.8l7.7-1.3v57.7h-7.7V6.8h0ZM131,19.1v34c0,6.8-4.2,10.1-9.6,10.1h-9.6V8.4c0-.4-.2-.8-.5-1.1l-1.4-1.6,11.6,2c5.3.9,9.5,5.1,9.5,11.4ZM123.3,18.9c0-1.6-.6-2.9-2.6-3.3l-1.4-.2v39.2h1.4c2,0,2.6-1.5,2.6-3.2V18.9ZM60.7,54.6l-6.9.2L64.5,1.9l-18.6,3.1v10l1.3-1.7c.2-.3.6-.5.9-.6l6.8-1-10.4,51.5h17.5l1.2-10.7-1.4,1.6c-.3.3-.7.5-1.1.5ZM25.1,9.7c.5.3.7.8.7,1.4l-1.7,28.9h-.2s-3.5-30.6-3.5-30.6l-6.4,1.1-3.3,30.4h-.2s-2.4-26.9-2.4-26.9c0-.5.2-.9.5-1.2l1.3-1.5L0,12.8l6,50.5h8l3-25.9h.3s3.1,25.9,3.1,25.9h8.6l4.6-56.1-9.8,1.7,1.3.9ZM106.3,42.7l3,20.6h-7.7l-2.1-16.6c-.2,0-.3,0-.5.1l-1.9.3v16.2h-7.7V4.7c0-.4-.2-.8-.5-1.1l-1.4-1.6,12,2c5.3.9,9.6,5.1,9.6,11.4v19.5c0,3.2-1,5.8-2.7,7.8ZM101.1,15.6c0-1.6-.6-2.9-2.6-3.3l-1.5-.3v26.7s.8-.1,1.6-.3c2-.4,2.5-1.9,2.5-3.7V15.6ZM147,37.5l-2.6-5.2c-1.2-2.5-3.7-8-3.7-11.2s.3-2.6,1.9-2.4c1.7.2,2,3.2,2,7.2v1.6s7-2.2,7-2.2c-.2-8.9-2.7-13.1-9-14.2-6.8-1.1-9.4,3.7-9.4,9.6s2.3,11.1,4.4,15.5l3.5,7.1c1.7,3.4,2.8,6,3.1,8.1.3,1.7-.2,4.4-1.5,4.4-1.8,0-2.4-2.3-2.4-8.4h0s-7.3,2.3-7.3,2.3c0,10.2,4,13.9,9.6,13.9s9.3-5.2,9.3-10.6c0-5.6-2.6-11.1-4.9-15.6ZM75.8,0l-4.8.8-7,62.5h7.8l3.7-44.5h.3l3.7,44.5h8L80.6.8l-4.8-.8Z"/>
        <polygon class="cls-31" points="75.7 18.8 71.9 63.3 79.7 63.3 75.9 18.8 75.7 18.8"/>
        <g class="cls-33">
          <ellipse class="cls-3" cx="75.8" cy="68.8" rx="10.1" ry="56"/>
        </g>
        <path class="cls-2" d="M35.4,6.8l7.7-1.3v57.7h-7.7V6.8h0ZM131,19.1v34c0,6.8-4.2,10.1-9.6,10.1h-9.6V8.4c0-.4-.2-.8-.5-1.1l-1.4-1.6,11.6,2c5.3.9,9.5,5.1,9.5,11.4ZM123.3,18.9c0-1.6-.6-2.9-2.6-3.3l-1.4-.2v39.2h1.4c2,0,2.6-1.5,2.6-3.2V18.9ZM60.7,54.6l-6.9.2L64.5,1.9l-18.6,3.1v10l1.3-1.7c.2-.3.6-.5.9-.6l6.8-1-10.4,51.5h17.5l1.2-10.7-1.4,1.6c-.3.3-.7.5-1.1.5ZM25.1,9.7c.5.3.7.8.7,1.4l-1.7,28.9h-.2s-3.5-30.6-3.5-30.6l-6.4,1.1-3.3,30.4h-.2s-2.4-26.9-2.4-26.9c0-.5.2-.9.5-1.2l1.3-1.5L0,12.8l6,50.5h8l3-25.9h.3s3.1,25.9,3.1,25.9h8.6l4.6-56.1-9.8,1.7,1.3.9ZM106.3,42.7l3,20.6h-7.7l-2.1-16.6c-.2,0-.3,0-.5.1l-1.9.3v16.2h-7.7V4.7c0-.4-.2-.8-.5-1.1l-1.4-1.6,12,2c5.3.9,9.6,5.1,9.6,11.4v19.5c0,3.2-1,5.8-2.7,7.8ZM101.1,15.6c0-1.6-.6-2.9-2.6-3.3l-1.5-.3v26.7s.8-.1,1.6-.3c2-.4,2.5-1.9,2.5-3.7V15.6ZM147,37.5l-2.6-5.2c-1.2-2.5-3.7-8-3.7-11.2s.3-2.6,1.9-2.4c1.7.2,2,3.2,2,7.2v1.6s7-2.2,7-2.2c-.2-8.9-2.7-13.1-9-14.2-6.8-1.1-9.4,3.7-9.4,9.6s2.3,11.1,4.4,15.5l3.5,7.1c1.7,3.4,2.8,6,3.1,8.1.3,1.7-.2,4.4-1.5,4.4-1.8,0-2.4-2.3-2.4-8.4h0s-7.3,2.3-7.3,2.3c0,10.2,4,13.9,9.6,13.9s9.3-5.2,9.3-10.6c0-5.6-2.6-11.1-4.9-15.6ZM75.8,0l-4.8.8-7,62.5h7.8l3.7-44.5h.3l3.7,44.5h8L80.6.8l-4.8-.8Z"/>
        <path class="cls-16" d="M76.8,21.2c0,7.3-.4,13.2-.9,13.2-.5,0-1-5.9-1-13.2,0-7.3.4-13.2.9-13.2.5,0,1,5.9,1,13.2Z"/>
        <g>
          <g class="cls-18">
            <path class="cls-6" d="M53.1,53.7c1.7,5.9,24.5,9.3,36.2,11.5,11.8,2.2,12.1-4.9,11.2-11.1-1.5-10.7-14.5-15.3-24.6-17.5-10.2-2.2-8.8,3.1-14.2,5.2-10.4,4-8.6,11.9-8.6,11.9Z"/>
          </g>
          <g class="cls-21">
            <path class="cls-11" d="M82,31.6c-5.7,6.7-6.3,13.9-7.9,12.6-1.6-1.3-1.2-8.9,2.1-17.5,3.2-8.1,11.5-11,13.1-9.7,1.6,1.3-1.7,7.8-7.4,14.5Z"/>
          </g>
          <g class="cls-19">
            <path class="cls-12" d="M70.8,34c3.4,8.5,3.6,16.4,5.5,15.7,1.9-.8,3.9-8.3,3.3-17.8-.6-9.1-7.6-14.7-9.6-14s-2.7,7.6.7,16.1Z"/>
          </g>
          <g class="cls-20">
            <path class="cls-15" d="M67.6,39.6c5.7,5.7,7.7,13,9.8,11,2-2,6.6-10.5,3.9-19.1-2.6-8.2-15.9-8.7-17.9-6.7-2,2-1.4,9.1,4.3,14.8Z"/>
          </g>
          <g class="cls-26">
            <path class="cls-14" d="M86.2,45.2c-5.1,3.3-9.8,7.5-10.5-.2-.1-1.4-4.4-16.9-.3-22.2,2.1-2.8,9.9,5.9,11.6,8.7s4.2,10.5-.8,13.8Z"/>
          </g>
          <g class="cls-23">
            <path class="cls-13" d="M78.4,38.6c23.2,14.7,6.1,26.2,2.9,28.9-1.7,1.5-3.2-5.2-12.9-5.5-5-.1-5.9-15.9-3.7-20.9,2.2-5,6.5-7.2,13.7-2.6Z"/>
          </g>
          <g class="cls-22">
            <path class="cls-30" d="M74.2,67.7c1.5-1.1,8.9.4,11.3.6,5,.4,3.1-5.3,3.1-5.3,0-15.6-15.3-13.3-20.7-13.5-5.4-.1-5,8.7-6.5,18.2.3,1,8.1-.3,12.8,0"/>
          </g>
          <g class="cls-25">
            <path class="cls-27" d="M60.5,42.6c.6,3.8,14.5,7.4,21.6,9.5,7.1,2.1,7.8-2.4,7.7-6.3-.2-6.8-7.9-10.6-14-12.6-6.1-2-5.6,1.4-9.1,2.4-6.7,1.9-6.1,6.9-6.1,6.9Z"/>
          </g>
          <g class="cls-24">
            <path class="cls-28" d="M45.7,55.1c0,7.6,26.8,20.3,40.4,27.3,13.7,7,16.5-1.2,17.6-8.7,1.9-13.1-11.5-25.4-24.1-30-12.6-4.6-11.8.3-19.2.7-14.1.7-14.7,10.7-14.7,10.7Z"/>
          </g>
        </g>
        <path class="cls-29" d="M23.8,40h-.3s-3.5-30.5-3.5-30.5h.3M64.2,2l-10.7,52.9h.3S64.5,1.9,64.5,1.9h-.4ZM9.7,11.2h-.4c0,0-1.3,1.5-1.3,1.5-.3.3-.5.8-.5,1.2l2.4,27h.3s0-.7,0-.7l-2.4-26.3c0-.5.2-.9.5-1.2l1.3-1.5ZM61.7,63.3h.3l1.2-10.7-.4.4-1.2,10.3ZM17,37.3h-.3s-3,25.9-3,25.9h.3l3-25.7v-.2ZM42.8,63.3h.3V5.5h-.3v57.7ZM28.6,63.3h.3l4.6-56.1h-.3c0,0-4.6,56.1-4.6,56.1ZM141.1,43.4c1.7,3.4,2.8,6,3.1,8.1.3,1.6-.1,4.2-1.4,4.3,0,0,.1,0,.2,0,1.4,0,1.8-2.7,1.5-4.3-.4-2.1-1.4-4.8-3.1-8.1l-3.5-7.1c-2.2-4.4-4.4-9.9-4.4-15.5s2.1-9.7,7.3-9.8c-5.5-.1-7.7,4.4-7.7,9.8s2.3,11.1,4.4,15.5l3.5,7.1ZM101.4,34.8V15.6c0-1.6-.6-2.9-2.6-3.3l-1.8-.3h0c0,0,1.5.3,1.5.3,2,.3,2.6,1.7,2.6,3.3v19.2c0,1.8-.5,3.3-2.5,3.7-.5,0-1.3.2-1.6.3h0c0,0,1.1-.1,1.9-.3,2-.4,2.5-1.9,2.5-3.7ZM144.6,26v1.6s.3-.1.3-.1v-1.5c0-4-.4-7-2-7.2-.3,0-.5,0-.7,0,.1,0,.2,0,.3,0,1.7.2,2,3.2,2,7.2ZM123.7,51.4V18.9c0-1.6-.6-2.9-2.6-3.3l-1.7-.3h0c0,0,1.4.3,1.4.3,2,.3,2.6,1.7,2.6,3.3v32.4c0,1.8-.6,3.3-2.6,3.2h.3c2,0,2.6-1.5,2.6-3.2ZM133.4,49.8l6.9-2.2s0,0,0-.1h0s-7.3,2.3-7.3,2.3c0,10.2,4,13.9,9.6,13.9s.1,0,.2,0c-5.4,0-9.4-3.8-9.4-13.9ZM111.6,7.3l-1.3-1.5h-.4c0,0,1.4,1.5,1.4,1.5.3.3.5.7.5,1.1v54.8h.3V8.4c0-.4-.2-.8-.5-1.1ZM89.6,28.4V4.7c0-.4-.2-.8-.5-1.1l-1.3-1.5h-.4c0,0,1.4,1.5,1.4,1.5.3.3.5.7.5,1.1v58.6h.3V28.4ZM99.5,46.7l2.1,16.5h.3l-2.1-16.6c-.1,0-.2,0-.3,0ZM55,11.7l-7.1,1.1c-.4,0-.7.3-.9.6l-1,1.3v.4l1.3-1.7c.2-.3.6-.5.9-.6l6.8-1h0Z"/>
      </g>
    </g>
  </g>
</svg>